<?xml version="1.0" encoding="UTF-8" standalone="no" ?>
<!DOCTYPE svg PUBLIC "-//W3C//DTD SVG 1.1//EN" "http://www.w3.org/Graphics/SVG/1.1/DTD/svg11.dtd">
<svg xmlns="http://www.w3.org/2000/svg" xmlns:xlink="http://www.w3.org/1999/xlink" version="1.1" width="1080" height="1080" viewBox="0 0 1080 1080" xml:space="preserve">
<desc>Created with Fabric.js 5.2.4</desc>
<defs>
</defs>
<g transform="matrix(0 0 0 0 0 0)" id="22e27f4a-08b8-4099-9cfd-a1e0587a284c"  >
</g>
<g transform="matrix(1 0 0 1 540 540)" id="9993c875-a43f-4f8d-a973-8329eda7af16"  >
<rect style="stroke: none; stroke-width: 1; stroke-dasharray: none; stroke-linecap: butt; stroke-dashoffset: 0; stroke-linejoin: miter; stroke-miterlimit: 4; fill: rgb(255,255,255); fill-rule: nonzero; opacity: 1; visibility: hidden;" vector-effect="non-scaling-stroke"  x="-540" y="-540" rx="0" ry="0" width="1080" height="1080" />
</g>
<g transform="matrix(2.51 0 0 2.51 540 540)"  >
<g style="" vector-effect="non-scaling-stroke"   >
		<g transform="matrix(1 0 0 1 0 62.12)"  >
<path style="stroke: none; stroke-width: 1; stroke-dasharray: none; stroke-linecap: butt; stroke-dashoffset: 0; stroke-linejoin: miter; stroke-miterlimit: 4; fill: rgb(255,255,255); fill-rule: nonzero; opacity: 1;" vector-effect="non-scaling-stroke"  transform=" translate(-142.6, -257.35)" d="M 236.1 278.4 C 235.4 278.9 234.6 279.4 233.9 279.9 C 233.1 280.4 232.4 280.9 231.6 281.29999999999995 C 230.9 281.69999999999993 230.29999999999998 282.09999999999997 229.6 282.49999999999994 C 229.5 282.59999999999997 229.4 282.59999999999997 229.29999999999998 282.69999999999993 C 226.99999999999997 284.0999999999999 224.6 285.3999999999999 222.2 286.5999999999999 C 221.5 286.9999999999999 220.7 287.3999999999999 220 287.69999999999993 C 220 287.69999999999993 219.9 287.79999999999995 219.8 287.79999999999995 L 217.4 288.99999999999994 C 215.8 289.79999999999995 214.1 290.49999999999994 212.5 291.19999999999993 C 211.7 291.5999999999999 210.8 291.8999999999999 210 292.19999999999993 C 209.2 292.49999999999994 208.3 292.8999999999999 207.5 293.19999999999993 C 206.7 293.49999999999994 205.8 293.8999999999999 205 294.19999999999993 L 204.9 294.19999999999993 C 204.1 294.49999999999994 203.20000000000002 294.79999999999995 202.4 295.0999999999999 C 200.6 295.69999999999993 198.70000000000002 296.2999999999999 196.9 296.8999999999999 C 196.3 297.0999999999999 195.6 297.2999999999999 195 297.49999999999994 C 193.1 298.09999999999997 191.2 298.59999999999997 189.3 298.99999999999994 C 188.60000000000002 299.19999999999993 187.9 299.29999999999995 187.10000000000002 299.49999999999994 C 185.3 299.8999999999999 183.40000000000003 300.29999999999995 181.60000000000002 300.69999999999993 C 181.20000000000002 300.79999999999995 180.90000000000003 300.79999999999995 180.50000000000003 300.8999999999999 C 179.90000000000003 300.99999999999994 179.20000000000002 301.0999999999999 178.60000000000002 301.19999999999993 C 177.70000000000002 301.29999999999995 176.90000000000003 301.49999999999994 176.00000000000003 301.5999999999999 C 175.60000000000002 301.69999999999993 175.20000000000002 301.69999999999993 174.80000000000004 301.7999999999999 C 174.30000000000004 301.8999999999999 173.70000000000005 301.9999999999999 173.10000000000005 301.9999999999999 C 171.50000000000006 302.1999999999999 169.80000000000004 302.39999999999986 168.20000000000005 302.5999999999999 C 167.70000000000005 302.69999999999993 167.10000000000005 302.69999999999993 166.60000000000005 302.7999999999999 L 166.50000000000006 302.7999999999999 C 165.80000000000007 302.8999999999999 165.10000000000005 302.8999999999999 164.40000000000006 302.9999999999999 C 163.70000000000007 303.0999999999999 163.00000000000006 303.0999999999999 162.30000000000007 303.0999999999999 C 161.90000000000006 303.0999999999999 161.40000000000006 303.19999999999993 161.00000000000006 303.19999999999993 C 160.20000000000005 303.19999999999993 159.50000000000006 303.29999999999995 158.80000000000007 303.29999999999995 C 157.80000000000007 303.29999999999995 156.90000000000006 303.4 155.90000000000006 303.4 L 150.90000000000006 303.4 C 108.70000000000006 302.79999999999995 70.80000000000007 284.9 43.70000000000006 256.5 C 43.70000000000006 256.5 43.70000000000006 256.4 43.60000000000006 256.4 C 40.60000000000006 253.7 43.20000000000006 239.29999999999998 55.300000000000054 230.2 C 70.50000000000006 218.7 106.90000000000006 211.5 106.90000000000006 211.5 C 106.90000000000006 211.5 121.00000000000006 209.2 173.30000000000007 220.1 C 203.90000000000006 226.5 227.20000000000007 235.79999999999998 240.20000000000007 261 C 242.90000000000006 266.2 245.60000000000008 274.2 236.10000000000008 278.4 Z" stroke-linecap="round" />
</g>
		<g transform="matrix(1 0 0 1 0.67 62.93)"  >
<path style="stroke: none; stroke-width: 1; stroke-dasharray: none; stroke-linecap: butt; stroke-dashoffset: 0; stroke-linejoin: miter; stroke-miterlimit: 4; fill: rgb(0,0,0); fill-rule: nonzero; opacity: 1;" vector-effect="non-scaling-stroke"  transform=" translate(-143.27, -258.16)" d="M 173.6 219 C 192.79999999999998 222.9 213.3 227.1 229.1 239.8 C 234.4 244.10000000000002 237.9 250.4 240.79999999999998 256.5 C 242.2 259.5 243.6 262.6 244.7 265.9 C 245.29999999999998 268.09999999999997 246.2 270.59999999999997 245.7 273.2 C 245.6 273.9 245 274.8 244.5 275.3 C 242.2 277.6 239.7 279 237.2 280.8 C 222.5 291 205.6 298.2 188.1 302 C 149.1 310.5 106.89999999999999 303.9 72.6 283.4 C 61.199999999999996 276.5 50.699999999999996 268.09999999999997 41.699999999999996 258.2 C 40.699999999999996 257 40.699999999999996 255 40.699999999999996 253.7 C 40.8 250.7 41.599999999999994 247.79999999999998 42.599999999999994 245.1 C 44.99999999999999 238.9 48.099999999999994 232.7 53.39999999999999 228.4 C 57.19999999999999 225.8 61.29999999999999 223.6 65.49999999999999 221.8 C 78.69999999999999 216.20000000000002 92.6 212.3 106.89999999999998 210.70000000000002 C 108.09999999999998 210.60000000000002 108.29999999999998 212.3 107.09999999999998 212.50000000000003 C 93.39999999999998 215.30000000000004 79.79999999999998 219.50000000000003 67.09999999999998 225.20000000000002 C 62.49999999999998 227.50000000000003 57.59999999999998 229.50000000000003 53.89999999999998 233.10000000000002 C 50.39999999999998 236.90000000000003 47.89999999999998 241.60000000000002 45.89999999999998 246.40000000000003 C 44.59999999999998 249.30000000000004 43.699999999999974 253.90000000000003 44.09999999999998 256.20000000000005 C 50.39999999999998 263.70000000000005 57.79999999999998 270.30000000000007 65.79999999999998 276.00000000000006 C 109.59999999999998 306.6000000000001 176.09999999999997 308.6000000000001 222.7 283.1000000000001 C 226.89999999999998 280.80000000000007 231 278.2000000000001 234.89999999999998 275.50000000000006 C 236.79999999999998 274.20000000000005 238.79999999999998 273.1000000000001 240.29999999999998 271.6000000000001 C 240.39999999999998 271.50000000000006 240.29999999999998 271.6000000000001 240.29999999999998 271.7000000000001 C 240.29999999999998 271.8000000000001 240.2 271.9000000000001 240.2 271.9000000000001 C 240.29999999999998 270.7000000000001 239.89999999999998 269.1000000000001 239.39999999999998 267.5000000000001 C 237.59999999999997 261.7000000000001 234.7 255.6000000000001 231.59999999999997 250.30000000000013 C 226.69999999999996 242.40000000000012 218.39999999999998 237.40000000000012 209.99999999999997 233.40000000000012 C 204.19999999999996 230.70000000000013 198.09999999999997 228.6000000000001 191.89999999999998 226.6000000000001 C 185.7 224.6000000000001 179.39999999999998 222.90000000000012 173.09999999999997 221.40000000000012 C 171.49999999999997 221.0000000000001 171.99999999999997 218.70000000000013 173.59999999999997 219.0000000000001 Z" stroke-linecap="round" />
</g>
		<g transform="matrix(1 0 0 1 0.25 79.03)"  >
<path style="stroke: none; stroke-width: 1; stroke-dasharray: none; stroke-linecap: butt; stroke-dashoffset: 0; stroke-linejoin: miter; stroke-miterlimit: 4; fill: rgb(0,0,0); fill-rule: nonzero; opacity: 1;" vector-effect="non-scaling-stroke"  transform=" translate(-142.85, -274.25)" d="M 269.3 340.4 L 16.4 340.4 C 16.4 340.4 31.299999999999997 309 37.9 273.2 C 42.5 248.39999999999998 45.9 233.89999999999998 58.8 225.89999999999998 C 67.89999999999999 220.29999999999998 93.5 212.2 111.69999999999999 209.59999999999997 C 119.1 208.59999999999997 133.79999999999998 207.49999999999997 146.5 208.49999999999997 C 156.1 209.69999999999996 175.9 215.29999999999998 183.5 217.39999999999998 C 194.9 220.59999999999997 219.6 230.09999999999997 230.5 240.09999999999997 C 234.8 244.09999999999997 245 264.09999999999997 251.6 293.09999999999997 C 259.2 326.09999999999997 269.3 340.4 269.3 340.4 Z" stroke-linecap="round" />
</g>
		<g transform="matrix(1 0 0 1 0 79.21)"  >
<path style="stroke: none; stroke-width: 1; stroke-dasharray: none; stroke-linecap: butt; stroke-dashoffset: 0; stroke-linejoin: miter; stroke-miterlimit: 4; fill: rgb(0,0,0); fill-rule: nonzero; opacity: 1;" vector-effect="non-scaling-stroke"  transform=" translate(-142.6, -274.44)" d="M 271.6 341.6 C 197.70000000000002 342.3 89.50000000000003 343.8 16.50000000000003 343.5 C 14.30000000000003 343.6 12.700000000000028 341.1 13.700000000000028 339.1 C 23.300000000000026 317.90000000000003 30.600000000000026 295.3 35.10000000000002 272.40000000000003 C 38.800000000000026 254.50000000000003 41.10000000000002 231.90000000000003 59.200000000000024 222.50000000000003 C 68.10000000000002 218.00000000000003 77.50000000000003 215.00000000000003 87.00000000000003 212.20000000000002 C 103.70000000000003 207.3 121.40000000000003 204.9 138.8 205.4 C 141.5 205.5 144.3 205.6 147.10000000000002 205.8 C 153.10000000000002 206.70000000000002 159.00000000000003 208.20000000000002 164.8 209.70000000000002 C 170 211.00000000000003 175.3 212.50000000000003 180.4 214.00000000000003 C 181 214.30000000000004 181.20000000000002 215.50000000000003 181.5 216.10000000000002 C 181.9 216.8 182.4 216.70000000000002 183.1 216.40000000000003 C 183.4 216.30000000000004 183.7 216.10000000000002 184 216.20000000000005 C 184.7 216.30000000000004 185.7 216.70000000000005 186.4 216.90000000000003 C 201.9 221.90000000000003 217.5 227.80000000000004 230.60000000000002 237.70000000000005 C 232.50000000000003 239.10000000000005 234.00000000000003 241.00000000000006 235.20000000000002 243.00000000000006 C 237.60000000000002 246.80000000000007 239.60000000000002 250.70000000000005 241.4 254.70000000000005 C 246.8 266.6 250.8 279.1 253.8 291.80000000000007 C 257.7 307.70000000000005 262.3 323.70000000000005 270.6 337.9000000000001 L 271 338.5000000000001 L 271.2 338.8000000000001 C 271.8 339.3000000000001 272 340.8000000000001 271.59999999999997 341.60000000000014 Z M 267 339.20000000000005 C 266.5 339.80000000000007 266.6 341.1 267 341.6 L 266.9 341.40000000000003 L 266.7 341.00000000000006 C 262.09999999999997 333.80000000000007 258.7 325.80000000000007 255.79999999999998 317.90000000000003 C 252.79999999999998 309.8 250.49999999999997 301.20000000000005 248.49999999999997 292.8 C 245.59999999999997 280.40000000000003 241.79999999999998 268.2 236.69999999999996 256.6 C 234.49999999999997 251.70000000000002 232.29999999999995 246.8 228.99999999999997 242.70000000000002 C 227.09999999999997 240.8 224.89999999999998 239.20000000000002 222.59999999999997 237.70000000000002 C 211.09999999999997 230.3 198.19999999999996 224.9 185.19999999999996 220.70000000000002 C 184.69999999999996 220.50000000000003 183.49999999999997 220.20000000000002 182.89999999999995 220.00000000000003 C 182.29999999999995 219.80000000000004 182.29999999999995 218.10000000000002 181.89999999999995 217.70000000000002 C 180.99999999999994 216.9 179.99999999999994 219.10000000000002 179.09999999999994 218.9 C 173.99999999999994 217.5 168.69999999999993 216.1 163.49999999999994 214.9 C 157.29999999999995 213.5 151.19999999999993 211.9 144.99999999999994 211.4 C 117.59999999999994 209.6 89.89999999999995 215.4 64.69999999999995 226.3 C 52.49999999999994 231.3 47.89999999999995 242.60000000000002 44.99999999999994 254.70000000000002 C 42.39999999999994 264.90000000000003 40.89999999999994 276 38.49999999999994 286.3 C 33.89999999999994 305.40000000000003 27.499999999999943 323.8 19.39999999999994 341.8 L 16.59999999999994 337.40000000000003 C 87.59999999999994 337.20000000000005 194.99999999999994 338.3 266.99999999999994 339.20000000000005 Z" stroke-linecap="round" />
</g>
		<g transform="matrix(1 0 0 1 2.93 17.77)"  >
<path style="stroke: none; stroke-width: 1; stroke-dasharray: none; stroke-linecap: butt; stroke-dashoffset: 0; stroke-linejoin: miter; stroke-miterlimit: 4; fill: rgb(255,255,255); fill-rule: nonzero; opacity: 1;" vector-effect="non-scaling-stroke"  transform=" translate(-145.53, -213.01)" d="M 182.999 245.6 C 180.899 255.9 167.299 262.1 144.399 252.79999999999998 C 120.599 243.2 110.299 220.29999999999998 107.699 213.5 C 121.79899999999999 187.1 111.999 168.8 111.999 168.8 C 144.499 166 172.899 204 172.899 204 L 177.299 222.8 C 177.699 224.4 178.499 225.8 179.699 226.8 C 181.799 230.5 184.299 239 182.99900000000002 245.60000000000002 Z" stroke-linecap="round" />
</g>
		<g transform="matrix(1 0 0 1 2.04 6.48)"  >
<path style="stroke: none; stroke-width: 1; stroke-dasharray: none; stroke-linecap: butt; stroke-dashoffset: 0; stroke-linejoin: miter; stroke-miterlimit: 4; fill: rgb(0,0,0); fill-rule: nonzero; opacity: 1;" vector-effect="non-scaling-stroke"  transform=" translate(-144.64, -201.71)" d="M 107.2 213.8 C 109.10000000000001 210.9 110.3 207.5 111.10000000000001 204.20000000000002 C 112.60000000000001 197.3 113.10000000000001 190.3 113.2 183.3 L 113.2 180.70000000000002 C 112.9 178.10000000000002 112 175.4 111 173.00000000000003 C 109.7 169.80000000000004 114.4 167.80000000000004 115.9 171.00000000000003 C 116.10000000000001 171.40000000000003 116.10000000000001 172.10000000000002 116.10000000000001 172.50000000000003 C 116.4 186.10000000000002 117.00000000000001 203.60000000000002 108.4 214.90000000000003 C 107.80000000000001 215.50000000000003 106.60000000000001 214.60000000000002 107.2 213.80000000000004 Z M 173.999 203.8 C 175.499 204.70000000000002 175.999 205.9 176.19899999999998 207.10000000000002 C 176.79899999999998 209.50000000000003 176.599 212.10000000000002 177.19899999999998 214.60000000000002 C 177.69899999999998 217.00000000000003 179.19899999999998 219.3 179.599 221.8 C 180.099 224.4 181.599 229.9 182.19899999999998 232.60000000000002 C 182.39899999999997 233.20000000000002 181.999 233.90000000000003 181.29899999999998 234.00000000000003 C 180.89899999999997 234.10000000000002 180.599 234.00000000000003 180.29899999999998 233.80000000000004 C 178.99899999999997 232.70000000000005 178.39899999999997 231.60000000000005 177.599 230.20000000000005 C 176.29899999999998 227.80000000000004 175.399 225.60000000000005 174.599 222.90000000000003 C 173.899 220.50000000000003 174.19899999999998 217.90000000000003 173.599 215.40000000000003 C 173.099 213.00000000000003 171.69899999999998 210.70000000000005 171.19899999999998 208.20000000000005 C 170.89899999999997 207.00000000000006 170.79899999999998 205.70000000000005 171.69899999999998 204.20000000000005 C 172.29899999999998 203.60000000000005 173.29899999999998 203.40000000000003 173.999 203.80000000000004 Z" stroke-linecap="round" />
</g>
		<g transform="matrix(1 0 0 1 13.65 17.92)"  >
<path style="stroke: none; stroke-width: 1; stroke-dasharray: none; stroke-linecap: butt; stroke-dashoffset: 0; stroke-linejoin: miter; stroke-miterlimit: 4; fill: rgb(0,0,0); fill-rule: nonzero; opacity: 1;" vector-effect="non-scaling-stroke"  transform=" translate(-156.25, -213.15)" d="M 181.2 230.2 C 162.1 229.2 146.5 223.2 131.29999999999998 196.1 C 144.1 207.4 159.2 211.7 175.09999999999997 213.7 L 177.19999999999996 222.89999999999998 C 177.59999999999997 224.49999999999997 179.99999999999997 229.2 181.19999999999996 230.2 Z" stroke-linecap="round" />
</g>
		<g transform="matrix(1 0 0 1 4.19 43.07)"  >
<path style="stroke: none; stroke-width: 1; stroke-dasharray: none; stroke-linecap: butt; stroke-dashoffset: 0; stroke-linejoin: miter; stroke-miterlimit: 4; fill: rgb(0,0,0); fill-rule: nonzero; opacity: 1;" vector-effect="non-scaling-stroke"  transform=" translate(-146.79, -238.3)" d="M 180.4 226.5 C 183.8 232.9 185.8 240.9 183.70000000000002 248 C 182.10000000000002 253 177.50000000000003 256.7 172.50000000000003 258.1 C 160.90000000000003 261.20000000000005 147.50000000000003 256.3 137.20000000000005 250.8 C 124.50000000000004 243.70000000000002 115.10000000000005 231.8 109.10000000000005 218.8 C 108.70000000000005 217.8 110.10000000000005 217 110.70000000000005 218 C 112.80000000000004 222.2 115.20000000000005 226.3 117.90000000000005 230 C 120.60000000000005 233.8 123.70000000000005 237.3 127.20000000000005 240.4 C 137.40000000000003 249.6 151.20000000000005 255.3 165.00000000000006 255.3 C 179.20000000000005 254.9 184.60000000000005 247.4 181.30000000000007 233.60000000000002 C 180.80000000000007 231.40000000000003 180.00000000000006 229.10000000000002 178.90000000000006 227.20000000000002 C 178.30000000000007 226.4 179.80000000000007 225.50000000000003 180.40000000000006 226.50000000000003 Z" stroke-linecap="round" />
</g>
		<g transform="matrix(1 0 0 1 13.49 -53.98)"  >
<path style="stroke: none; stroke-width: 1; stroke-dasharray: none; stroke-linecap: butt; stroke-dashoffset: 0; stroke-linejoin: miter; stroke-miterlimit: 4; fill: rgb(255,255,255); fill-rule: nonzero; opacity: 1;" vector-effect="non-scaling-stroke"  transform=" translate(-156.09, -141.25)" d="M 219.1 106.4 C 220.9 114.80000000000001 214.9 123.80000000000001 214.9 146.2 C 214.9 169.1 210.70000000000002 194 193.4 211.29999999999998 C 178.5 226.2 161.4 225.6 141.3 209.89999999999998 C 138.5 207.7 128.70000000000002 200.29999999999998 126.20000000000002 197.79999999999998 C 123.30000000000001 194.89999999999998 121.70000000000002 192.79999999999998 120.30000000000001 190.6 C 119.10000000000001 188.6 119.4 177 117.70000000000002 174.29999999999998 C 113.30000000000001 166.99999999999997 112.40000000000002 174.89999999999998 106.70000000000002 168.49999999999997 C 98.80000000000001 159.89999999999998 89.30000000000001 142.59999999999997 94.00000000000001 111.99999999999997 C 101.60000000000001 62.39999999999997 140.9 56.59999999999997 170 62.09999999999997 C 199.3 67.69999999999997 214.3 84.29999999999997 219.1 106.39999999999998 Z" stroke-linecap="round" />
</g>
		<g transform="matrix(1 0 0 1 13.61 -54.33)"  >
<path style="stroke: none; stroke-width: 1; stroke-dasharray: none; stroke-linecap: butt; stroke-dashoffset: 0; stroke-linejoin: miter; stroke-miterlimit: 4; fill: rgb(0,0,0); fill-rule: nonzero; opacity: 1;" vector-effect="non-scaling-stroke"  transform=" translate(-156.21, -140.9)" d="M 111.7 177.4 C 109.4 173.6 106.5 170.20000000000002 103.8 166.70000000000002 C 101.1 163.00000000000003 98.89999999999999 159.10000000000002 97.1 154.9 C 86.89999999999999 130.20000000000002 88.39999999999999 97.9 106.5 77.10000000000001 C 118.9 62.900000000000006 138.5 58.20000000000001 156.5 59.20000000000001 C 174.5 60.30000000000001 193.2 64.9 206.5 77.9 C 214.2 85.4 219.1 95.4 221.3 105.80000000000001 C 222 109.10000000000001 221.5 112.70000000000002 220.70000000000002 115.80000000000001 C 218.4 124.50000000000001 216.20000000000002 132.8 216.00000000000003 141.8 C 216.10000000000002 155.20000000000002 215.70000000000002 168.9 211.80000000000004 181.8 C 209.00000000000003 190.4 205.70000000000005 199 200.50000000000003 206.5 C 195.10000000000002 214.1 187.00000000000003 220.2 177.70000000000002 222 C 159.00000000000003 225.8 141.5 214 129.10000000000002 201.2 C 128.60000000000002 200.6 129.3 199.89999999999998 129.90000000000003 200.29999999999998 C 137.00000000000003 205.7 144.30000000000004 210.7 152.20000000000005 214.1 C 175.00000000000006 224.6 193.90000000000003 214.9 203.90000000000003 192.9 C 212.30000000000004 176.9 214.70000000000005 159.60000000000002 214.00000000000003 141.7 C 214.00000000000003 137.2 214.20000000000002 132.7 214.80000000000004 128.2 C 215.40000000000003 121.69999999999999 217.60000000000005 115.19999999999999 217.50000000000003 108.79999999999998 C 215.80000000000004 98.39999999999998 211.00000000000003 88.39999999999998 203.80000000000004 80.69999999999999 C 186.70000000000005 62.59999999999999 153.90000000000003 57.29999999999999 130.90000000000003 65.49999999999999 C 103.80000000000004 75.09999999999998 96.50000000000003 102.39999999999998 95.00000000000003 128.5 C 94.00000000000003 144.1 98.60000000000002 159.4 110.40000000000003 170.1 L 115.10000000000004 175 C 116.70000000000003 177.2 113.30000000000004 179.8 111.70000000000003 177.4 Z" stroke-linecap="round" />
</g>
		<g transform="matrix(1 0 0 1 -32.83 -42.81)"  >
<path style="stroke: none; stroke-width: 1; stroke-dasharray: none; stroke-linecap: butt; stroke-dashoffset: 0; stroke-linejoin: miter; stroke-miterlimit: 4; fill: rgb(255,255,255); fill-rule: nonzero; opacity: 1;" vector-effect="non-scaling-stroke"  transform=" translate(-109.76, -152.43)" d="M 123.5 145.6 C 123.5 145.6 120.4 130.6 105.8 132.4 C 93.2 134 88.8 164.20000000000002 117.39999999999999 172.60000000000002" stroke-linecap="round" />
</g>
		<g transform="matrix(1 0 0 1 11.58 -43.21)"  >
<path style="stroke: none; stroke-width: 1; stroke-dasharray: none; stroke-linecap: butt; stroke-dashoffset: 0; stroke-linejoin: miter; stroke-miterlimit: 4; fill: rgb(0,0,0); fill-rule: nonzero; opacity: 1;" vector-effect="non-scaling-stroke"  transform=" translate(-154.19, -152.02)" d="M 116.1 159.5 C 113.8 158.2 112.19999999999999 156 112.1 153.3 C 112.19999999999999 151.3 112.5 149 112 147 C 111.7 145.1 109.7 144.6 108.2 144.7 C 106.60000000000001 145 105.60000000000001 147 105.3 148.6 C 105.3 148.7 105.2 149 105.2 149.1 C 105.10000000000001 149.6 104.3 149.6 104.10000000000001 149.1 C 102.80000000000001 145.2 105.7 140.9 109.9 141.4 C 115.80000000000001 141.8 116.60000000000001 148 115.5 152.70000000000002 C 114.9 154.70000000000002 115.7 156.50000000000003 116.8 158.20000000000002 L 117 158.50000000000003 C 117.5 159.10000000000002 116.7 159.90000000000003 116.1 159.50000000000003 Z M 196.1 135 C 197.6 142.1 200.4 148.7 203.9 154.9 C 207 162.5 199 169.70000000000002 191.9 169.4 C 191.1 169.4 191 168.3 191.70000000000002 168.1 C 196.20000000000002 166.7 200.3 163.7 201.00000000000003 159.1 C 201.30000000000004 157.7 200.90000000000003 156.5 200.20000000000002 155.29999999999998 C 196.9 149.1 194.9 141.99999999999997 195.4 134.99999999999997 C 195.4 134.49999999999997 196.1 134.49999999999997 196.1 134.99999999999997 Z" stroke-linecap="round" />
</g>
		<g transform="matrix(1 0 0 1 -33.47 -43.52)"  >
<path style="stroke: none; stroke-width: 1; stroke-dasharray: none; stroke-linecap: butt; stroke-dashoffset: 0; stroke-linejoin: miter; stroke-miterlimit: 4; fill: rgb(0,0,0); fill-rule: nonzero; opacity: 1;" vector-effect="non-scaling-stroke"  transform=" translate(-109.12, -151.71)" d="M 123 145.7 C 120.7 139.79999999999998 115.7 134.2 109 134.29999999999998 C 108.4 134.2 107.4 134.39999999999998 106.8 134.39999999999998 C 105.1 134.49999999999997 103.7 135.09999999999997 102.39999999999999 136.29999999999998 C 95.99999999999999 142.7 97.1 153.99999999999997 102.3 161.1 C 104.1 163.6 106.39999999999999 165.79999999999998 109 167.6 C 111.6 169.4 114.5 170.79999999999998 117.6 172 C 118.3 172.2 118 173.3 117.3 173.2 C 110.6 171.79999999999998 104.2 168.5 99.8 163 C 93 154.8 91.6 141.1 99.7 133.1 C 101.5 131.5 104 130.29999999999998 106.5 130.29999999999998 C 107.3 130.29999999999998 108.5 130.1 109.3 130.29999999999998 C 113.5 130.49999999999997 117.5 132.6 120.1 135.89999999999998 C 122.39999999999999 138.7 123.69999999999999 142.09999999999997 124.1 145.49999999999997 C 124.1 146.09999999999997 123.19999999999999 146.29999999999998 123 145.69999999999996 Z" stroke-linecap="round" />
</g>
		<g transform="matrix(1 0 0 1 20.82 -74.27)"  >
<path style="stroke: none; stroke-width: 1; stroke-dasharray: none; stroke-linecap: butt; stroke-dashoffset: 0; stroke-linejoin: miter; stroke-miterlimit: 4; fill: rgb(0,0,0); fill-rule: nonzero; opacity: 1;" vector-effect="non-scaling-stroke"  transform=" translate(-163.42, -120.96)" d="M 222.2 60.5 C 198.2 53.7 195.6 66.1 171.6 52.9 C 147.6 39.599999999999994 104.1 48.5 96 79.4 C 96 79.4 82.6 87.60000000000001 81.7 115.9 C 81.10000000000001 134.9 91 152.3 97.5 161.60000000000002 C 101.9 168.8 106.5 174.10000000000002 109.2 178.90000000000003 C 113.5 186.60000000000002 115.60000000000001 195.00000000000003 115.60000000000001 195.00000000000003 C 116.60000000000001 185.40000000000003 118.9 176.60000000000002 117.50000000000001 172.70000000000002 L 114.20000000000002 171.60000000000002 C 89.20000000000002 162.00000000000003 93.70000000000002 134.10000000000002 105.90000000000002 132.50000000000003 C 118.70000000000002 130.90000000000003 122.70000000000002 142.30000000000004 123.40000000000002 145.10000000000002 C 125.10000000000002 143.00000000000003 124.50000000000001 136.70000000000002 124.10000000000002 129.20000000000002 C 144.10000000000002 139.10000000000002 164.10000000000002 116.60000000000002 170.8 99.20000000000002 C 179.10000000000002 77.70000000000002 197.4 94.50000000000001 197.4 94.50000000000001 C 197.4 94.50000000000001 215.5 128.4 234.7 113.30000000000001 C 251.7 99.70000000000002 248.29999999999998 67.80000000000001 222.2 60.500000000000014 Z" stroke-linecap="round" />
</g>
		<g transform="matrix(1 0 0 1 41.02 -64.62)"  >
<path style="stroke: none; stroke-width: 1; stroke-dasharray: none; stroke-linecap: butt; stroke-dashoffset: 0; stroke-linejoin: miter; stroke-miterlimit: 4; fill: rgb(0,0,0); fill-rule: nonzero; opacity: 1;" vector-effect="non-scaling-stroke"  transform=" translate(-183.62, -130.61)" d="M 174.2 122 C 176.39999999999998 121.8 177.5 119.2 176.29999999999998 117.2 C 175.6 116.2 174.7 115.3 173.39999999999998 114.8 C 169.59999999999997 113.6 157.2 116.3 151.79999999999998 122.5 C 146.99999999999997 128.2 164.2 122.9 174.2 122 Z M 200.6 123.6 C 198.9 123.1 198.4 120.6 199.79999999999998 119 C 200.49999999999997 118.2 201.49999999999997 117.5 202.6 117.3 C 206 116.7 213.79999999999998 119.8 216 125.7 C 218 130.8 208.7 125.60000000000001 200.6 123.60000000000001 Z M 158.8 145.2 C 156.4 145.1 154.60000000000002 143.1 154.8 140.7 L 154.9 137.89999999999998 C 155 135.49999999999997 157 133.7 159.4 133.89999999999998 C 161.8 133.99999999999997 163.6 135.99999999999997 163.4 138.39999999999998 L 163.3 141.2 C 163.20000000000002 143.5 161.20000000000002 145.29999999999998 158.8 145.2 Z M 200.9 146.7 C 198.70000000000002 146.6 197 144.7 197.1 142.5 L 197.2 139.9 C 197.29999999999998 137.70000000000002 199.2 136 201.39999999999998 136.1 C 203.59999999999997 136.2 205.29999999999998 138.1 205.2 140.29999999999998 L 205.1 142.89999999999998 C 205 145.09999999999997 203.1 146.79999999999998 200.9 146.7 Z" stroke-linecap="round" />
</g>
		<g transform="matrix(1 0 0 1 37.86 -57.86)"  >
<path style="stroke: none; stroke-width: 1; stroke-dasharray: none; stroke-linecap: butt; stroke-dashoffset: 0; stroke-linejoin: miter; stroke-miterlimit: 4; fill: rgb(0,0,0); fill-rule: nonzero; opacity: 1;" vector-effect="non-scaling-stroke"  transform=" translate(-180.46, -137.37)" d="M 167.8 139.8 C 164.5 137.60000000000002 160.9 136.10000000000002 156.9 136.9 C 155.6 137.1 154.3 137.5 153.5 138.4 C 153.2 138.8 152.5 138.70000000000002 152.5 138.1 C 152.6 136.1 154.3 134.79999999999998 155.9 134 C 159 132.4 163.3 132.7 166.1 134.8 C 167.1 135.4 170.5 139.10000000000002 168.7 139.9 C 168.29999999999998 140.1 168.1 140 167.79999999999998 139.8 Z M 196.399 140.3 C 196.399 136.10000000000002 201.599 134.60000000000002 204.799 136.10000000000002 C 206.59900000000002 136.90000000000003 207.899 138.50000000000003 208.399 140.40000000000003 C 208.599 141.00000000000003 207.699 141.50000000000003 207.299 141.00000000000003 C 205.59900000000002 139.00000000000003 202.699 138.00000000000003 200.399 139.20000000000002 C 199.699 139.60000000000002 199.599 139.9 199.399 140.3 C 199.399 142.3 196.499 142.20000000000002 196.399 140.3 Z" stroke-linecap="round" />
</g>
		<g transform="matrix(1 0 0 1 38.75 -16.9)"  >
<path style="stroke: none; stroke-width: 1; stroke-dasharray: none; stroke-linecap: butt; stroke-dashoffset: 0; stroke-linejoin: miter; stroke-miterlimit: 4; fill: rgb(0,0,0); fill-rule: nonzero; opacity: 1;" vector-effect="non-scaling-stroke"  transform=" translate(-181.35, -178.32)" d="M 190.6 181.6 C 186 180.5 181.4 179 176.79999999999998 178.7 C 175.7 178.6 174.6 178.7 173.49999999999997 178.89999999999998 C 172.79999999999998 179.09999999999997 171.69999999999996 179.49999999999997 171.49999999999997 178.49999999999997 C 171.39999999999998 178.19999999999996 171.49999999999997 177.89999999999998 171.69999999999996 177.69999999999996 C 176.69999999999996 172.59999999999997 187.09999999999997 175.49999999999997 191.09999999999997 180.69999999999996 C 191.39999999999998 180.99999999999997 191.19999999999996 181.69999999999996 190.59999999999997 181.59999999999997 Z" stroke-linecap="round" />
</g>
</g>
</g>
</svg>
